# xmcd
#
# Track frame offsets: 
#        182
#        11952
#        20662
#        29790
#        42087
#        51545
#        63020
#        69600
#        78505
#        89892
#        100515
#        113827
#        126860
#        135195
#        147990
#        156567
#        166977
#        175277
#        189172
#        201447
#        214857
#        223975
#        231650
#        238172
#        246650
#        254967
#        264315
#        275527
#        285497
#        294387
#
# Disc length: 4097 seconds
#
# Revision: 0
# Processed by: cddbd v1.4PL0 Copyright (c) Steve Scherf et al.
# Submitted via: ExactAudioCopy v0.90b4
#
DISCID=e50fff1e
DTITLE=Various Artist - 30 Fiddler's Greatest Hits
DYEAR=1987
DGENRE=Bluegrass
TTITLE0=Orange Blossom Breakdown Revival
TTITLE1=Still on the Hill
TTITLE2=Peacock Rag
TTITLE3=Maind's Prayer
TTITLE4=Three Fiddle Swing
TTITLE5=Lee Highway Ramble
TTITLE6=Big Tiger Special
TTITLE7=Sweet Nellie
TTITLE8=Drag That Fiddle
TTITLE9=Mac's Hoedown
TTITLE10=Black Mountain Rag
TTITLE11=Tulsa Hop
TTITLE12=Molly and Tenbrooks
TTITLE13=Listen to the Mockingbird
TTITLE14=Cotton Eyed Joe
TTITLE15=Richmond Ruckus
TTITLE16=Kentucky Fiddler
TTITLE17=Talkin' Fiddle Blues
TTITLE18=Devis's Dream
TTITLE19=Louise
TTITLE20=Texas Quick Step
TTITLE21=Trott Along
TTITLE22=Beaumont Rag
TTITLE23=Joys of Quebec
TTITLE24=Fiddlin' Joe
TTITLE25=Opry Fiddler's Blues
TTITLE26=Twin Fiddle Polka
TTITLE27=Merry Mounatin Hoedown
TTITLE28=Whistlewood
TTITLE29=Sparta Waltz
EXTD=
EXTT0=
EXTT1=
EXTT2=
EXTT3=
EXTT4=
EXTT5=
EXTT6=
EXTT7=
EXTT8=
EXTT9=
EXTT10=
EXTT11=
EXTT12=
EXTT13=
EXTT14=
EXTT15=
EXTT16=
EXTT17=
EXTT18=
EXTT19=
EXTT20=
EXTT21=
EXTT22=
EXTT23=
EXTT24=
EXTT25=
EXTT26=
EXTT27=
EXTT28=
EXTT29=
PLAYORDER=
